<svg width="423" height="345" viewBox="0 0 423 345" fill="none" xmlns="http://www.w3.org/2000/svg">
<path d="M7.112 18V1.08H12.728C14.6 1.08 16.184 1.408 17.48 2.064C18.776 2.704 19.76 3.656 20.432 4.92C21.104 6.168 21.44 7.704 21.44 9.528C21.44 11.336 21.104 12.872 20.432 14.136C19.76 15.4 18.776 16.36 17.48 17.016C16.184 17.672 14.6 18 12.728 18H7.112ZM9.104 16.296H12.584C14.888 16.296 16.6 15.736 17.72 14.616C18.84 13.48 19.4 11.784 19.4 9.528C19.4 7.256 18.84 5.56 17.72 4.44C16.6 3.32 14.888 2.76 12.584 2.76H9.104V16.296ZM29.7697 18.216C28.6177 18.216 27.6097 17.968 26.7457 17.472C25.8977 16.96 25.2417 16.24 24.7777 15.312C24.3137 14.368 24.0817 13.256 24.0817 11.976C24.0817 10.68 24.3137 9.568 24.7777 8.64C25.2417 7.712 25.8977 7 26.7457 6.504C27.6097 5.992 28.6177 5.736 29.7697 5.736C30.9377 5.736 31.9457 5.992 32.7937 6.504C33.6577 7 34.3217 7.712 34.7857 8.64C35.2657 9.568 35.5057 10.68 35.5057 11.976C35.5057 13.256 35.2657 14.368 34.7857 15.312C34.3217 16.24 33.6577 16.96 32.7937 17.472C31.9457 17.968 30.9377 18.216 29.7697 18.216ZM29.7697 16.632C30.9217 16.632 31.8337 16.24 32.5057 15.456C33.1777 14.656 33.5137 13.496 33.5137 11.976C33.5137 10.44 33.1697 9.28 32.4817 8.496C31.8097 7.696 30.9057 7.296 29.7697 7.296C28.6337 7.296 27.7297 7.696 27.0577 8.496C26.3857 9.28 26.0497 10.44 26.0497 11.976C26.0497 13.496 26.3857 14.656 27.0577 15.456C27.7297 16.24 28.6337 16.632 29.7697 16.632ZM38.5366 18V8.736C38.5366 8.288 38.5126 7.832 38.4646 7.368C38.4326 6.888 38.3926 6.416 38.3446 5.952H40.2166L40.4566 8.592H40.1686C40.5206 7.664 41.0806 6.96 41.8486 6.48C42.6326 5.984 43.5366 5.736 44.5606 5.736C45.9846 5.736 47.0566 6.12 47.7766 6.888C48.5126 7.64 48.8806 8.832 48.8806 10.464V18H46.9366V10.584C46.9366 9.448 46.7046 8.624 46.2406 8.112C45.7926 7.584 45.0886 7.32 44.1286 7.32C43.0086 7.32 42.1206 7.664 41.4646 8.352C40.8086 9.04 40.4806 9.96 40.4806 11.112V18H38.5366ZM57.1831 18.216C56.1111 18.216 55.1751 17.968 54.3751 17.472C53.5751 16.96 52.9511 16.24 52.5031 15.312C52.0711 14.384 51.8551 13.272 51.8551 11.976C51.8551 10.664 52.0711 9.544 52.5031 8.616C52.9511 7.688 53.5751 6.976 54.3751 6.48C55.1751 5.984 56.1111 5.736 57.1831 5.736C58.2711 5.736 59.2071 6.016 59.9911 6.576C60.7911 7.12 61.3191 7.864 61.5751 8.808H61.2871L61.5511 5.952H63.4231C63.3751 6.416 63.3271 6.888 63.2791 7.368C63.2471 7.832 63.2311 8.288 63.2311 8.736V18H61.2871V15.168H61.5511C61.2951 16.112 60.7671 16.856 59.9671 17.4C59.1671 17.944 58.2391 18.216 57.1831 18.216ZM57.5671 16.632C58.7191 16.632 59.6311 16.24 60.3031 15.456C60.9751 14.656 61.3111 13.496 61.3111 11.976C61.3111 10.44 60.9751 9.28 60.3031 8.496C59.6311 7.696 58.7191 7.296 57.5671 7.296C56.4311 7.296 55.5191 7.696 54.8311 8.496C54.1591 9.28 53.8231 10.44 53.8231 11.976C53.8231 13.496 54.1591 14.656 54.8311 15.456C55.5191 16.24 56.4311 16.632 57.5671 16.632ZM70.9978 18.216C70.0378 18.216 69.1418 18.088 68.3098 17.832C67.4778 17.56 66.7898 17.184 66.2458 16.704L66.9178 15.336C67.5098 15.8 68.1498 16.144 68.8378 16.368C69.5418 16.592 70.2698 16.704 71.0218 16.704C71.9818 16.704 72.7018 16.536 73.1818 16.2C73.6778 15.848 73.9258 15.368 73.9258 14.76C73.9258 14.296 73.7658 13.928 73.4458 13.656C73.1418 13.368 72.6378 13.144 71.9338 12.984L69.7018 12.528C68.6778 12.304 67.9098 11.928 67.3978 11.4C66.8858 10.856 66.6298 10.168 66.6298 9.336C66.6298 8.632 66.8138 8.016 67.1818 7.488C67.5498 6.944 68.0858 6.52 68.7898 6.216C69.4938 5.896 70.3178 5.736 71.2617 5.736C72.1418 5.736 72.9498 5.872 73.6858 6.144C74.4378 6.4 75.0618 6.776 75.5578 7.272L74.8618 8.616C74.3818 8.152 73.8298 7.808 73.2058 7.584C72.5978 7.344 71.9658 7.224 71.3098 7.224C70.3658 7.224 69.6538 7.416 69.1738 7.8C68.7098 8.168 68.4778 8.656 68.4778 9.264C68.4778 9.728 68.6218 10.112 68.9098 10.416C69.2138 10.704 69.6778 10.92 70.3018 11.064L72.5338 11.52C73.6218 11.76 74.4298 12.136 74.9578 12.648C75.5018 13.144 75.7738 13.816 75.7738 14.664C75.7738 15.384 75.5738 16.016 75.1738 16.56C74.7738 17.088 74.2138 17.496 73.4938 17.784C72.7898 18.072 71.9578 18.216 70.9978 18.216ZM78.896 18V5.952H80.84V18H78.896ZM78.656 3.216V1.032H81.056V3.216H78.656ZM95.4326 18.216C94.3766 18.216 93.4486 17.968 92.6486 17.472C91.8486 16.96 91.2246 16.24 90.7766 15.312C90.3446 14.384 90.1286 13.272 90.1286 11.976C90.1286 10.664 90.3446 9.544 90.7766 8.616C91.2246 7.688 91.8486 6.976 92.6486 6.48C93.4486 5.984 94.3766 5.736 95.4326 5.736C96.5206 5.736 97.4566 6.008 98.2406 6.552C99.0406 7.096 99.5766 7.832 99.8486 8.76H99.5606V0.335999H101.505V18H99.5846V15.12H99.8486C99.5926 16.08 99.0646 16.84 98.2646 17.4C97.4646 17.944 96.5206 18.216 95.4326 18.216ZM95.8406 16.632C96.9766 16.632 97.8886 16.24 98.5766 15.456C99.2646 14.656 99.6086 13.496 99.6086 11.976C99.6086 10.44 99.2646 9.28 98.5766 8.496C97.8886 7.696 96.9766 7.296 95.8406 7.296C94.7046 7.296 93.7926 7.696 93.1046 8.496C92.4326 9.28 92.0966 10.44 92.0966 11.976C92.0966 13.496 92.4326 14.656 93.1046 15.456C93.7926 16.24 94.7046 16.632 95.8406 16.632ZM105.263 18V5.952H107.207V18H105.263ZM105.023 3.216V1.032H107.423V3.216H105.023ZM117.456 18V1.08H119.448V18H117.456ZM123.451 18V8.736C123.451 8.288 123.427 7.832 123.379 7.368C123.347 6.888 123.307 6.416 123.259 5.952H125.131L125.371 8.592H125.083C125.435 7.664 125.995 6.96 126.763 6.48C127.547 5.984 128.451 5.736 129.475 5.736C130.899 5.736 131.971 6.12 132.691 6.888C133.427 7.64 133.795 8.832 133.795 10.464V18H131.851V10.584C131.851 9.448 131.619 8.624 131.155 8.112C130.707 7.584 130.003 7.32 129.043 7.32C127.923 7.32 127.035 7.664 126.379 8.352C125.723 9.04 125.395 9.96 125.395 11.112V18H123.451ZM142.073 18.216C141.017 18.216 140.089 17.968 139.289 17.472C138.489 16.96 137.865 16.24 137.417 15.312C136.985 14.384 136.769 13.272 136.769 11.976C136.769 10.664 136.985 9.544 137.417 8.616C137.865 7.688 138.489 6.976 139.289 6.48C140.089 5.984 141.017 5.736 142.073 5.736C143.161 5.736 144.097 6.008 144.881 6.552C145.681 7.096 146.217 7.832 146.489 8.76H146.201V0.335999H148.145V18H146.225V15.12H146.489C146.233 16.08 145.705 16.84 144.905 17.4C144.105 17.944 143.161 18.216 142.073 18.216ZM142.481 16.632C143.617 16.632 144.529 16.24 145.217 15.456C145.905 14.656 146.249 13.496 146.249 11.976C146.249 10.44 145.905 9.28 145.217 8.496C144.529 7.696 143.617 7.296 142.481 7.296C141.345 7.296 140.433 7.696 139.745 8.496C139.073 9.28 138.737 10.44 138.737 11.976C138.737 13.496 139.073 14.656 139.745 15.456C140.433 16.24 141.345 16.632 142.481 16.632ZM156.848 18.216C155.696 18.216 154.688 17.968 153.824 17.472C152.976 16.96 152.32 16.24 151.856 15.312C151.392 14.368 151.16 13.256 151.16 11.976C151.16 10.68 151.392 9.568 151.856 8.64C152.32 7.712 152.976 7 153.824 6.504C154.688 5.992 155.696 5.736 156.848 5.736C158.016 5.736 159.024 5.992 159.872 6.504C160.736 7 161.4 7.712 161.864 8.64C162.344 9.568 162.584 10.68 162.584 11.976C162.584 13.256 162.344 14.368 161.864 15.312C161.4 16.24 160.736 16.96 159.872 17.472C159.024 17.968 158.016 18.216 156.848 18.216ZM156.848 16.632C158 16.632 158.912 16.24 159.584 15.456C160.256 14.656 160.592 13.496 160.592 11.976C160.592 10.44 160.248 9.28 159.56 8.496C158.888 7.696 157.984 7.296 156.848 7.296C155.712 7.296 154.808 7.696 154.136 8.496C153.464 9.28 153.128 10.44 153.128 11.976C153.128 13.496 153.464 14.656 154.136 15.456C154.808 16.24 155.712 16.632 156.848 16.632ZM165.615 18V8.736C165.615 8.288 165.591 7.832 165.543 7.368C165.511 6.888 165.471 6.416 165.423 5.952H167.295L167.535 8.592H167.247C167.599 7.664 168.159 6.96 168.927 6.48C169.711 5.984 170.615 5.736 171.639 5.736C173.063 5.736 174.135 6.12 174.855 6.888C175.591 7.64 175.959 8.832 175.959 10.464V18H174.015V10.584C174.015 9.448 173.783 8.624 173.319 8.112C172.871 7.584 172.167 7.32 171.207 7.32C170.087 7.32 169.199 7.664 168.543 8.352C167.887 9.04 167.559 9.96 167.559 11.112V18H165.615ZM185.029 18.216C183.141 18.216 181.653 17.672 180.565 16.584C179.477 15.48 178.933 13.952 178.933 12C178.933 10.736 179.173 9.64 179.653 8.712C180.133 7.768 180.805 7.04 181.669 6.528C182.533 6 183.525 5.736 184.645 5.736C185.749 5.736 186.677 5.968 187.429 6.432C188.181 6.896 188.757 7.56 189.157 8.424C189.557 9.272 189.757 10.28 189.757 11.448V12.168H180.421V10.944H188.485L188.077 11.256C188.077 9.976 187.789 8.976 187.213 8.256C186.637 7.536 185.781 7.176 184.645 7.176C183.445 7.176 182.509 7.6 181.837 8.448C181.165 9.28 180.829 10.408 180.829 11.832V12.048C180.829 13.552 181.197 14.696 181.933 15.48C182.685 16.248 183.733 16.632 185.077 16.632C185.797 16.632 186.469 16.528 187.093 16.32C187.733 16.096 188.341 15.736 188.917 15.24L189.589 16.608C189.061 17.12 188.389 17.52 187.573 17.808C186.773 18.08 185.925 18.216 185.029 18.216ZM196.74 18.216C195.78 18.216 194.884 18.088 194.052 17.832C193.22 17.56 192.532 17.184 191.988 16.704L192.66 15.336C193.252 15.8 193.892 16.144 194.58 16.368C195.284 16.592 196.012 16.704 196.764 16.704C197.724 16.704 198.444 16.536 198.924 16.2C199.42 15.848 199.668 15.368 199.668 14.76C199.668 14.296 199.508 13.928 199.188 13.656C198.884 13.368 198.38 13.144 197.676 12.984L195.444 12.528C194.42 12.304 193.652 11.928 193.14 11.4C192.628 10.856 192.372 10.168 192.372 9.336C192.372 8.632 192.556 8.016 192.924 7.488C193.292 6.944 193.828 6.52 194.532 6.216C195.236 5.896 196.06 5.736 197.004 5.736C197.884 5.736 198.692 5.872 199.428 6.144C200.18 6.4 200.804 6.776 201.3 7.272L200.604 8.616C200.124 8.152 199.572 7.808 198.948 7.584C198.34 7.344 197.708 7.224 197.052 7.224C196.108 7.224 195.396 7.416 194.916 7.8C194.452 8.168 194.22 8.656 194.22 9.264C194.22 9.728 194.364 10.112 194.652 10.416C194.956 10.704 195.42 10.92 196.044 11.064L198.276 11.52C199.364 11.76 200.172 12.136 200.7 12.648C201.244 13.144 201.516 13.816 201.516 14.664C201.516 15.384 201.316 16.016 200.916 16.56C200.516 17.088 199.956 17.496 199.236 17.784C198.532 18.072 197.7 18.216 196.74 18.216ZM204.638 18V5.952H206.582V18H204.638ZM204.398 3.216V1.032H206.798V3.216H204.398ZM214.941 18.216C213.869 18.216 212.933 17.968 212.133 17.472C211.333 16.96 210.709 16.24 210.261 15.312C209.829 14.384 209.613 13.272 209.613 11.976C209.613 10.664 209.829 9.544 210.261 8.616C210.709 7.688 211.333 6.976 212.133 6.48C212.933 5.984 213.869 5.736 214.941 5.736C216.029 5.736 216.965 6.016 217.749 6.576C218.549 7.12 219.077 7.864 219.333 8.808H219.045L219.309 5.952H221.181C221.133 6.416 221.085 6.888 221.037 7.368C221.005 7.832 220.989 8.288 220.989 8.736V18H219.045V15.168H219.309C219.053 16.112 218.525 16.856 217.725 17.4C216.925 17.944 215.997 18.216 214.941 18.216ZM215.325 16.632C216.477 16.632 217.389 16.24 218.061 15.456C218.733 14.656 219.069 13.496 219.069 11.976C219.069 10.44 218.733 9.28 218.061 8.496C217.389 7.696 216.477 7.296 215.325 7.296C214.189 7.296 213.277 7.696 212.589 8.496C211.917 9.28 211.581 10.44 211.581 11.976C211.581 13.496 211.917 14.656 212.589 15.456C213.277 16.24 214.189 16.632 215.325 16.632ZM235.277 18.216C234.093 18.216 233.189 17.88 232.565 17.208C231.941 16.52 231.629 15.488 231.629 14.112V7.464H229.277V5.952H231.629V2.664L233.573 2.112V5.952H237.029V7.464H233.573V13.896C233.573 14.856 233.733 15.544 234.053 15.96C234.389 16.36 234.885 16.56 235.541 16.56C235.845 16.56 236.117 16.536 236.357 16.488C236.597 16.424 236.813 16.352 237.005 16.272V17.904C236.781 18 236.509 18.072 236.189 18.12C235.885 18.184 235.581 18.216 235.277 18.216ZM244.631 18.216C242.743 18.216 241.255 17.672 240.167 16.584C239.079 15.48 238.535 13.952 238.535 12C238.535 10.736 238.775 9.64 239.255 8.712C239.735 7.768 240.407 7.04 241.271 6.528C242.135 6 243.127 5.736 244.247 5.736C245.351 5.736 246.279 5.968 247.031 6.432C247.783 6.896 248.359 7.56 248.759 8.424C249.159 9.272 249.359 10.28 249.359 11.448V12.168H240.023V10.944H248.087L247.679 11.256C247.679 9.976 247.391 8.976 246.815 8.256C246.239 7.536 245.383 7.176 244.247 7.176C243.047 7.176 242.111 7.6 241.439 8.448C240.767 9.28 240.431 10.408 240.431 11.832V12.048C240.431 13.552 240.799 14.696 241.535 15.48C242.287 16.248 243.335 16.632 244.679 16.632C245.399 16.632 246.071 16.528 246.695 16.32C247.335 16.096 247.943 15.736 248.519 15.24L249.191 16.608C248.663 17.12 247.991 17.52 247.175 17.808C246.375 18.08 245.527 18.216 244.631 18.216ZM252.286 18V8.856C252.286 8.376 252.27 7.888 252.238 7.392C252.222 6.896 252.19 6.416 252.142 5.952H254.014L254.254 8.88L253.918 8.904C254.078 8.184 254.358 7.592 254.758 7.128C255.158 6.664 255.63 6.32 256.174 6.096C256.718 5.856 257.286 5.736 257.878 5.736C258.118 5.736 258.326 5.744 258.502 5.76C258.694 5.776 258.87 5.816 259.03 5.88L259.006 7.608C258.766 7.528 258.542 7.48 258.334 7.464C258.142 7.432 257.918 7.416 257.662 7.416C256.958 7.416 256.342 7.584 255.814 7.92C255.302 8.256 254.91 8.688 254.638 9.216C254.382 9.744 254.254 10.304 254.254 10.896V18H252.286ZM265.3 18.216C263.876 18.216 262.796 17.824 262.06 17.04C261.34 16.256 260.98 15.056 260.98 13.44V5.952H262.924V13.392C262.924 14.496 263.148 15.312 263.596 15.84C264.044 16.352 264.74 16.608 265.684 16.608C266.74 16.608 267.588 16.264 268.228 15.576C268.868 14.888 269.188 13.968 269.188 12.816V5.952H271.132V18H269.236V15.288H269.548C269.212 16.216 268.668 16.936 267.916 17.448C267.18 17.96 266.308 18.216 265.3 18.216ZM278.912 18.216C277.952 18.216 277.056 18.088 276.224 17.832C275.392 17.56 274.704 17.184 274.16 16.704L274.832 15.336C275.424 15.8 276.064 16.144 276.752 16.368C277.456 16.592 278.184 16.704 278.936 16.704C279.896 16.704 280.616 16.536 281.096 16.2C281.592 15.848 281.84 15.368 281.84 14.76C281.84 14.296 281.68 13.928 281.36 13.656C281.056 13.368 280.552 13.144 279.848 12.984L277.616 12.528C276.592 12.304 275.824 11.928 275.312 11.4C274.8 10.856 274.544 10.168 274.544 9.336C274.544 8.632 274.728 8.016 275.096 7.488C275.464 6.944 276 6.52 276.704 6.216C277.408 5.896 278.232 5.736 279.176 5.736C280.056 5.736 280.864 5.872 281.6 6.144C282.352 6.4 282.976 6.776 283.472 7.272L282.776 8.616C282.296 8.152 281.744 7.808 281.12 7.584C280.512 7.344 279.88 7.224 279.224 7.224C278.28 7.224 277.568 7.416 277.088 7.8C276.624 8.168 276.392 8.656 276.392 9.264C276.392 9.728 276.536 10.112 276.824 10.416C277.128 10.704 277.592 10.92 278.216 11.064L280.448 11.52C281.536 11.76 282.344 12.136 282.872 12.648C283.416 13.144 283.688 13.816 283.688 14.664C283.688 15.384 283.488 16.016 283.088 16.56C282.688 17.088 282.128 17.496 281.408 17.784C280.704 18.072 279.872 18.216 278.912 18.216ZM6.896 54V44.736C6.896 44.288 6.872 43.832 6.824 43.368C6.792 42.888 6.752 42.416 6.704 41.952H8.576L8.816 44.592H8.528C8.848 43.68 9.352 42.976 10.04 42.48C10.744 41.984 11.592 41.736 12.584 41.736C13.592 41.736 14.408 41.976 15.032 42.456C15.672 42.936 16.104 43.68 16.328 44.688H15.968C16.272 43.776 16.808 43.056 17.576 42.528C18.344 42 19.24 41.736 20.264 41.736C21.592 41.736 22.592 42.12 23.264 42.888C23.936 43.64 24.272 44.832 24.272 46.464V54H22.328V46.584C22.328 45.448 22.128 44.624 21.728 44.112C21.328 43.584 20.688 43.32 19.808 43.32C18.8 43.32 18 43.672 17.408 44.376C16.832 45.064 16.544 45.992 16.544 47.16V54H14.6V46.584C14.6 45.448 14.4 44.624 14 44.112C13.6 43.584 12.96 43.32 12.08 43.32C11.072 43.32 10.28 43.672 9.704 44.376C9.128 45.064 8.84 45.992 8.84 47.16V54H6.896ZM33.3183 54.216C31.4303 54.216 29.9423 53.672 28.8543 52.584C27.7663 51.48 27.2223 49.952 27.2223 48C27.2223 46.736 27.4623 45.64 27.9423 44.712C28.4223 43.768 29.0943 43.04 29.9583 42.528C30.8223 42 31.8143 41.736 32.9343 41.736C34.0383 41.736 34.9663 41.968 35.7183 42.432C36.4703 42.896 37.0463 43.56 37.4463 44.424C37.8463 45.272 38.0463 46.28 38.0463 47.448V48.168H28.7103V46.944H36.7743L36.3663 47.256C36.3663 45.976 36.0783 44.976 35.5023 44.256C34.9263 43.536 34.0703 43.176 32.9343 43.176C31.7343 43.176 30.7983 43.6 30.1263 44.448C29.4543 45.28 29.1183 46.408 29.1183 47.832V48.048C29.1183 49.552 29.4863 50.696 30.2223 51.48C30.9743 52.248 32.0223 52.632 33.3663 52.632C34.0863 52.632 34.7583 52.528 35.3823 52.32C36.0223 52.096 36.6303 51.736 37.2063 51.24L37.8783 52.608C37.3503 53.12 36.6783 53.52 35.8623 53.808C35.0623 54.08 34.2143 54.216 33.3183 54.216ZM41.021 54V44.736C41.021 44.288 40.997 43.832 40.949 43.368C40.917 42.888 40.877 42.416 40.829 41.952H42.701L42.941 44.592H42.653C43.005 43.664 43.565 42.96 44.333 42.48C45.117 41.984 46.021 41.736 47.045 41.736C48.469 41.736 49.541 42.12 50.261 42.888C50.997 43.64 51.365 44.832 51.365 46.464V54H49.421V46.584C49.421 45.448 49.189 44.624 48.725 44.112C48.277 43.584 47.573 43.32 46.613 43.32C45.493 43.32 44.605 43.664 43.949 44.352C43.293 45.04 42.965 45.96 42.965 47.112V54H41.021ZM55.0835 54V41.952H57.0275V54H55.0835ZM54.8435 39.216V37.032H57.2435V39.216H54.8435ZM60.8023 54V44.736C60.8023 44.288 60.7783 43.832 60.7303 43.368C60.6983 42.888 60.6583 42.416 60.6103 41.952H62.4823L62.7223 44.592H62.4342C62.7863 43.664 63.3463 42.96 64.1143 42.48C64.8983 41.984 65.8023 41.736 66.8263 41.736C68.2503 41.736 69.3223 42.12 70.0423 42.888C70.7783 43.64 71.1463 44.832 71.1463 46.464V54H69.2023V46.584C69.2023 45.448 68.9703 44.624 68.5063 44.112C68.0583 43.584 67.3543 43.32 66.3943 43.32C65.2743 43.32 64.3863 43.664 63.7303 44.352C63.0743 45.04 62.7463 45.96 62.7463 47.112V54H60.8023ZM80.1688 59.352C79.1288 59.352 78.1688 59.224 77.2888 58.968C76.4088 58.712 75.6168 58.32 74.9128 57.792L75.4888 56.328C75.9848 56.68 76.4728 56.96 76.9528 57.168C77.4328 57.376 77.9288 57.528 78.4408 57.624C78.9528 57.736 79.4968 57.792 80.0728 57.792C81.2568 57.792 82.1528 57.48 82.7608 56.856C83.3688 56.232 83.6728 55.344 83.6728 54.192V50.664H83.9128C83.6568 51.608 83.1288 52.36 82.3288 52.92C81.5288 53.464 80.5928 53.736 79.5208 53.736C78.4168 53.736 77.4568 53.496 76.6408 53.016C75.8408 52.52 75.2168 51.824 74.7688 50.928C74.3368 50.016 74.1208 48.944 74.1208 47.712C74.1208 46.496 74.3368 45.44 74.7688 44.544C75.2168 43.648 75.8408 42.96 76.6408 42.48C77.4568 41.984 78.4168 41.736 79.5208 41.736C80.6088 41.736 81.5448 42.008 82.3288 42.552C83.1288 43.096 83.6568 43.848 83.9128 44.808L83.6728 44.568L83.8888 41.952H85.7848C85.7208 42.416 85.6728 42.888 85.6407 43.368C85.6088 43.832 85.5928 44.288 85.5928 44.736V53.928C85.5928 55.72 85.1288 57.072 84.2008 57.984C83.2888 58.896 81.9448 59.352 80.1688 59.352ZM79.8808 52.152C81.0488 52.152 81.9688 51.768 82.6408 51C83.3128 50.216 83.6488 49.12 83.6488 47.712C83.6488 46.304 83.3128 45.216 82.6408 44.448C81.9688 43.68 81.0488 43.296 79.8808 43.296C78.7288 43.296 77.8088 43.68 77.1208 44.448C76.4328 45.216 76.0888 46.304 76.0888 47.712C76.0888 49.12 76.4328 50.216 77.1208 51C77.8088 51.768 78.7288 52.152 79.8808 52.152ZM89.3257 54V36.336H91.2697V47.304H91.3177L96.9097 41.952H99.3577L92.7577 48.24L92.8057 47.256L99.9817 54H97.4617L91.3177 48.336H91.2697V54H89.3257ZM106.144 54.216C105.072 54.216 104.136 53.968 103.336 53.472C102.536 52.96 101.912 52.24 101.464 51.312C101.032 50.384 100.816 49.272 100.816 47.976C100.816 46.664 101.032 45.544 101.464 44.616C101.912 43.688 102.536 42.976 103.336 42.48C104.136 41.984 105.072 41.736 106.144 41.736C107.232 41.736 108.168 42.016 108.952 42.576C109.752 43.12 110.28 43.864 110.536 44.808H110.248L110.512 41.952H112.384C112.336 42.416 112.288 42.888 112.24 43.368C112.208 43.832 112.192 44.288 112.192 44.736V54H110.248V51.168H110.512C110.256 52.112 109.728 52.856 108.928 53.4C108.128 53.944 107.2 54.216 106.144 54.216ZM106.528 52.632C107.68 52.632 108.592 52.24 109.264 51.456C109.936 50.656 110.272 49.496 110.272 47.976C110.272 46.44 109.936 45.28 109.264 44.496C108.592 43.696 107.68 43.296 106.528 43.296C105.392 43.296 104.48 43.696 103.792 44.496C103.12 45.28 102.784 46.44 102.784 47.976C102.784 49.496 103.12 50.656 103.792 51.456C104.48 52.24 105.392 52.632 106.528 52.632ZM120.223 54.216C119.039 54.216 118.135 53.88 117.511 53.208C116.887 52.52 116.575 51.488 116.575 50.112V43.464H114.223V41.952H116.575V38.664L118.519 38.112V41.952H121.975V43.464H118.519V49.896C118.519 50.856 118.679 51.544 118.999 51.96C119.335 52.36 119.831 52.56 120.487 52.56C120.791 52.56 121.063 52.536 121.303 52.488C121.543 52.424 121.759 52.352 121.951 52.272V53.904C121.727 54 121.455 54.072 121.135 54.12C120.831 54.184 120.527 54.216 120.223 54.216Z" fill="black"/>
<path d="M156.322 344V342.512L162.322 336.248C163.106 335.432 163.69 334.656 164.074 333.92C164.474 333.168 164.674 332.392 164.674 331.592C164.674 330.616 164.37 329.88 163.762 329.384C163.154 328.872 162.274 328.616 161.122 328.616C160.226 328.616 159.394 328.776 158.626 329.096C157.874 329.4 157.146 329.888 156.442 330.56L155.722 329C156.362 328.36 157.178 327.848 158.17 327.464C159.162 327.064 160.21 326.864 161.314 326.864C163.026 326.864 164.346 327.264 165.274 328.064C166.202 328.848 166.666 329.968 166.666 331.424C166.666 332.496 166.402 333.52 165.874 334.496C165.362 335.456 164.61 336.448 163.618 337.472L158.314 342.848V342.296H167.386V344H156.322ZM175.848 344.216C173.928 344.216 172.456 343.472 171.432 341.984C170.408 340.496 169.896 338.344 169.896 335.528C169.896 332.696 170.408 330.544 171.432 329.072C172.456 327.6 173.928 326.864 175.848 326.864C177.784 326.864 179.256 327.6 180.264 329.072C181.288 330.544 181.8 332.688 181.8 335.504C181.8 338.336 181.288 340.496 180.264 341.984C179.24 343.472 177.768 344.216 175.848 344.216ZM175.848 342.488C177.192 342.488 178.192 341.92 178.848 340.784C179.504 339.648 179.832 337.888 179.832 335.504C179.832 333.104 179.504 331.352 178.848 330.248C178.192 329.128 177.192 328.568 175.848 328.568C174.52 328.568 173.52 329.128 172.848 330.248C172.192 331.368 171.864 333.12 171.864 335.504C171.864 337.888 172.192 339.648 172.848 340.784C173.52 341.92 174.52 342.488 175.848 342.488ZM185.103 344V342.512L191.103 336.248C191.887 335.432 192.471 334.656 192.855 333.92C193.255 333.168 193.455 332.392 193.455 331.592C193.455 330.616 193.151 329.88 192.543 329.384C191.935 328.872 191.055 328.616 189.903 328.616C189.007 328.616 188.175 328.776 187.407 329.096C186.655 329.4 185.927 329.888 185.223 330.56L184.503 329C185.143 328.36 185.959 327.848 186.951 327.464C187.943 327.064 188.991 326.864 190.095 326.864C191.807 326.864 193.127 327.264 194.055 328.064C194.983 328.848 195.447 329.968 195.447 331.424C195.447 332.496 195.183 333.52 194.655 334.496C194.143 335.456 193.391 336.448 192.399 337.472L187.095 342.848V342.296H196.167V344H185.103ZM204.63 344.216C202.71 344.216 201.238 343.472 200.214 341.984C199.19 340.496 198.678 338.344 198.678 335.528C198.678 332.696 199.19 330.544 200.214 329.072C201.238 327.6 202.71 326.864 204.63 326.864C206.566 326.864 208.038 327.6 209.046 329.072C210.07 330.544 210.582 332.688 210.582 335.504C210.582 338.336 210.07 340.496 209.046 341.984C208.022 343.472 206.55 344.216 204.63 344.216ZM204.63 342.488C205.974 342.488 206.974 341.92 207.63 340.784C208.286 339.648 208.614 337.888 208.614 335.504C208.614 333.104 208.286 331.352 207.63 330.248C206.974 329.128 205.974 328.568 204.63 328.568C203.302 328.568 202.302 329.128 201.63 330.248C200.974 331.368 200.646 333.12 200.646 335.504C200.646 337.888 200.974 339.648 201.63 340.784C202.302 341.92 203.302 342.488 204.63 342.488Z" fill="black"/>
<path d="M3.064 344V342.512L9.064 336.248C9.848 335.432 10.432 334.656 10.816 333.92C11.216 333.168 11.416 332.392 11.416 331.592C11.416 330.616 11.112 329.88 10.504 329.384C9.896 328.872 9.016 328.616 7.864 328.616C6.968 328.616 6.136 328.776 5.368 329.096C4.616 329.4 3.888 329.888 3.184 330.56L2.464 329C3.104 328.36 3.92 327.848 4.912 327.464C5.904 327.064 6.952 326.864 8.056 326.864C9.768 326.864 11.088 327.264 12.016 328.064C12.944 328.848 13.408 329.968 13.408 331.424C13.408 332.496 13.144 333.52 12.616 334.496C12.104 335.456 11.352 336.448 10.36 337.472L5.056 342.848V342.296H14.128V344H3.064ZM22.5906 344.216C20.6706 344.216 19.1986 343.472 18.1746 341.984C17.1506 340.496 16.6386 338.344 16.6386 335.528C16.6386 332.696 17.1506 330.544 18.1746 329.072C19.1986 327.6 20.6706 326.864 22.5906 326.864C24.5266 326.864 25.9986 327.6 27.0066 329.072C28.0306 330.544 28.5426 332.688 28.5426 335.504C28.5426 338.336 28.0306 340.496 27.0066 341.984C25.9826 343.472 24.5106 344.216 22.5906 344.216ZM22.5906 342.488C23.9346 342.488 24.9346 341.92 25.5906 340.784C26.2466 339.648 26.5746 337.888 26.5746 335.504C26.5746 333.104 26.2466 331.352 25.5906 330.248C24.9346 329.128 23.9346 328.568 22.5906 328.568C21.2626 328.568 20.2626 329.128 19.5906 330.248C18.9346 331.368 18.6066 333.12 18.6066 335.504C18.6066 337.888 18.9346 339.648 19.5906 340.784C20.2626 341.92 21.2626 342.488 22.5906 342.488ZM32.8293 344V342.296H36.8133V328.784H37.8693L33.2133 331.688V329.696L37.3653 327.08H38.8053V342.296H42.5493V344H32.8293ZM51.3719 344.216C49.4359 344.216 47.9399 343.808 46.8839 342.992C45.8279 342.16 45.2999 341 45.2999 339.512C45.2999 338.344 45.6599 337.376 46.3799 336.608C47.0999 335.824 48.0519 335.352 49.2359 335.192V335.552C48.1639 335.328 47.3079 334.84 46.6679 334.088C46.0279 333.32 45.7079 332.416 45.7079 331.376C45.7079 329.952 46.2119 328.848 47.2199 328.064C48.2279 327.264 49.6119 326.864 51.3719 326.864C53.1479 326.864 54.5399 327.264 55.5479 328.064C56.5559 328.848 57.0599 329.952 57.0599 331.376C57.0599 332.416 56.7559 333.32 56.1479 334.088C55.5559 334.856 54.7239 335.336 53.6519 335.528V335.192C54.8199 335.352 55.7479 335.824 56.4359 336.608C57.1239 337.376 57.4679 338.344 57.4679 339.512C57.4679 341 56.9399 342.16 55.8839 342.992C54.8279 343.808 53.3239 344.216 51.3719 344.216ZM51.3719 342.584C52.7799 342.584 53.8279 342.32 54.5159 341.792C55.2199 341.264 55.5719 340.464 55.5719 339.392C55.5719 338.336 55.2199 337.552 54.5159 337.04C53.8279 336.512 52.7799 336.248 51.3719 336.248C49.9639 336.248 48.9079 336.512 48.2039 337.04C47.5159 337.552 47.1719 338.336 47.1719 339.392C47.1719 340.464 47.5239 341.264 48.2279 341.792C48.9319 342.32 49.9799 342.584 51.3719 342.584ZM51.3719 334.616C52.5879 334.616 53.5159 334.344 54.1559 333.8C54.8119 333.256 55.1399 332.504 55.1399 331.544C55.1399 330.584 54.8119 329.84 54.1559 329.312C53.5159 328.768 52.5879 328.496 51.3719 328.496C50.1559 328.496 49.2199 328.768 48.5639 329.312C47.9239 329.84 47.6039 330.584 47.6039 331.544C47.6039 332.504 47.9239 333.256 48.5639 333.8C49.2199 334.344 50.1559 334.616 51.3719 334.616Z" fill="black"/>
<circle cx="2.38874" cy="232.347" r="2.38874" fill="url(#paint0_linear_0_1)"/>
<circle cx="14.8104" cy="232.347" r="2.38874" fill="url(#paint1_linear_0_1)"/>
<circle cx="27.2299" cy="232.347" r="2.38874" fill="url(#paint2_linear_0_1)"/>
<circle cx="39.6538" cy="232.347" r="2.38874" fill="url(#paint3_linear_0_1)"/>
<circle cx="52.0756" cy="232.347" r="2.38874" fill="url(#paint4_linear_0_1)"/>
<circle cx="64.4949" cy="232.347" r="2.38874" fill="url(#paint5_linear_0_1)"/>
<circle cx="76.9167" cy="232.347" r="2.38874" fill="url(#paint6_linear_0_1)"/>
<circle cx="89.3406" cy="232.347" r="2.38874" fill="url(#paint7_linear_0_1)"/>
<circle cx="2.38874" cy="244.768" r="2.38874" fill="url(#paint8_linear_0_1)"/>
<circle cx="14.8104" cy="244.768" r="2.38874" fill="url(#paint9_linear_0_1)"/>
<circle cx="27.2299" cy="244.768" r="2.38874" fill="url(#paint10_linear_0_1)"/>
<circle cx="39.6538" cy="244.768" r="2.38874" fill="url(#paint11_linear_0_1)"/>
<circle cx="52.0756" cy="244.768" r="2.38874" fill="url(#paint12_linear_0_1)"/>
<circle cx="64.4949" cy="244.768" r="2.38874" fill="url(#paint13_linear_0_1)"/>
<circle cx="76.9167" cy="244.768" r="2.38874" fill="url(#paint14_linear_0_1)"/>
<circle cx="89.3406" cy="244.768" r="2.38874" fill="url(#paint15_linear_0_1)"/>
<circle cx="2.38874" cy="257.19" r="2.38874" fill="url(#paint16_linear_0_1)"/>
<circle cx="14.8104" cy="257.19" r="2.38874" fill="url(#paint17_linear_0_1)"/>
<circle cx="27.2299" cy="257.19" r="2.38874" fill="url(#paint18_linear_0_1)"/>
<circle cx="39.6538" cy="257.19" r="2.38874" fill="url(#paint19_linear_0_1)"/>
<circle cx="52.0756" cy="257.19" r="2.38874" fill="url(#paint20_linear_0_1)"/>
<circle cx="64.4949" cy="257.19" r="2.38874" fill="url(#paint21_linear_0_1)"/>
<circle cx="76.9167" cy="257.19" r="2.38874" fill="url(#paint22_linear_0_1)"/>
<circle cx="89.3406" cy="257.19" r="2.38874" fill="url(#paint23_linear_0_1)"/>
<circle cx="2.38874" cy="269.611" r="2.38874" fill="url(#paint24_linear_0_1)"/>
<circle cx="14.8104" cy="269.611" r="2.38874" fill="url(#paint25_linear_0_1)"/>
<circle cx="27.2299" cy="269.611" r="2.38874" fill="url(#paint26_linear_0_1)"/>
<circle cx="39.6538" cy="269.611" r="2.38874" fill="url(#paint27_linear_0_1)"/>
<circle cx="52.0756" cy="269.611" r="2.38874" fill="url(#paint28_linear_0_1)"/>
<circle cx="64.4949" cy="269.611" r="2.38874" fill="url(#paint29_linear_0_1)"/>
<circle cx="76.9167" cy="269.611" r="2.38874" fill="url(#paint30_linear_0_1)"/>
<circle cx="89.3406" cy="269.611" r="2.38874" fill="url(#paint31_linear_0_1)"/>
<circle cx="2.38874" cy="282.033" r="2.38874" fill="url(#paint32_linear_0_1)"/>
<circle cx="14.8104" cy="282.033" r="2.38874" fill="url(#paint33_linear_0_1)"/>
<circle cx="27.2299" cy="282.033" r="2.38874" fill="url(#paint34_linear_0_1)"/>
<circle cx="39.6538" cy="282.033" r="2.38874" fill="url(#paint35_linear_0_1)"/>
<circle cx="52.0756" cy="282.033" r="2.38874" fill="url(#paint36_linear_0_1)"/>
<circle cx="64.4949" cy="282.033" r="2.38874" fill="url(#paint37_linear_0_1)"/>
<circle cx="76.9167" cy="282.033" r="2.38874" fill="url(#paint38_linear_0_1)"/>
<circle cx="89.3406" cy="282.033" r="2.38874" fill="url(#paint39_linear_0_1)"/>
<circle cx="2.38874" cy="294.454" r="2.38874" fill="url(#paint40_linear_0_1)"/>
<circle cx="14.8104" cy="294.454" r="2.38874" fill="url(#paint41_linear_0_1)"/>
<circle cx="27.2299" cy="294.454" r="2.38874" fill="url(#paint42_linear_0_1)"/>
<circle cx="39.6538" cy="294.454" r="2.38874" fill="url(#paint43_linear_0_1)"/>
<circle cx="52.0756" cy="294.454" r="2.38874" fill="url(#paint44_linear_0_1)"/>
<circle cx="64.4949" cy="294.454" r="2.38874" fill="url(#paint45_linear_0_1)"/>
<circle cx="76.9167" cy="294.454" r="2.38874" fill="url(#paint46_linear_0_1)"/>
<circle cx="89.3406" cy="294.454" r="2.38874" fill="url(#paint47_linear_0_1)"/>
<circle cx="2.38874" cy="306.876" r="2.38874" fill="url(#paint48_linear_0_1)"/>
<circle cx="14.8104" cy="306.876" r="2.38874" fill="url(#paint49_linear_0_1)"/>
<circle cx="27.2299" cy="306.876" r="2.38874" fill="url(#paint50_linear_0_1)"/>
<circle cx="39.6538" cy="306.876" r="2.38874" fill="url(#paint51_linear_0_1)"/>
<circle cx="52.0756" cy="306.876" r="2.38874" fill="url(#paint52_linear_0_1)"/>
<circle cx="64.4949" cy="306.876" r="2.38874" fill="url(#paint53_linear_0_1)"/>
<circle cx="76.9167" cy="306.876" r="2.38874" fill="url(#paint54_linear_0_1)"/>
<circle cx="89.3406" cy="306.876" r="2.38874" fill="url(#paint55_linear_0_1)"/>
<circle cx="2.38874" cy="319.297" r="2.38874" fill="url(#paint56_linear_0_1)"/>
<circle cx="14.8104" cy="319.297" r="2.38874" fill="url(#paint57_linear_0_1)"/>
<circle cx="27.2299" cy="319.297" r="2.38874" fill="url(#paint58_linear_0_1)"/>
<circle cx="39.6538" cy="319.297" r="2.38874" fill="url(#paint59_linear_0_1)"/>
<circle cx="52.0756" cy="319.297" r="2.38874" fill="url(#paint60_linear_0_1)"/>
<circle cx="64.4949" cy="319.297" r="2.38874" fill="url(#paint61_linear_0_1)"/>
<circle cx="76.9167" cy="319.297" r="2.38874" fill="url(#paint62_linear_0_1)"/>
<circle cx="89.3406" cy="319.297" r="2.38874" fill="url(#paint63_linear_0_1)"/>
<rect x="238" y="153" width="184.646" height="52.4157" rx="8" fill="#38AA90"/>
<path d="M280.207 176.184C281.316 176.184 282.196 176.52 282.847 177.192C283.508 177.864 283.839 178.797 283.839 179.992V185.208H281.119V180.36C281.119 179.784 280.964 179.341 280.655 179.032C280.356 178.712 279.94 178.552 279.407 178.552C278.874 178.552 278.452 178.712 278.143 179.032C277.844 179.341 277.695 179.784 277.695 180.36V185.208H274.975V180.36C274.975 179.784 274.82 179.341 274.511 179.032C274.212 178.712 273.796 178.552 273.263 178.552C272.73 178.552 272.308 178.712 271.999 179.032C271.7 179.341 271.551 179.784 271.551 180.36V185.208H268.815V176.28H271.551V177.4C271.828 177.027 272.191 176.733 272.639 176.52C273.087 176.296 273.594 176.184 274.159 176.184C274.831 176.184 275.428 176.328 275.951 176.616C276.484 176.904 276.9 177.315 277.199 177.848C277.508 177.357 277.93 176.957 278.463 176.648C278.996 176.339 279.578 176.184 280.207 176.184ZM294.169 180.6C294.169 180.856 294.153 181.123 294.121 181.4H287.929C287.971 181.955 288.147 182.381 288.457 182.68C288.777 182.968 289.166 183.112 289.625 183.112C290.307 183.112 290.782 182.824 291.049 182.248H293.961C293.811 182.835 293.539 183.363 293.145 183.832C292.761 184.301 292.275 184.669 291.689 184.936C291.102 185.203 290.446 185.336 289.721 185.336C288.846 185.336 288.067 185.149 287.385 184.776C286.702 184.403 286.169 183.869 285.785 183.176C285.401 182.483 285.209 181.672 285.209 180.744C285.209 179.816 285.395 179.005 285.769 178.312C286.153 177.619 286.686 177.085 287.369 176.712C288.051 176.339 288.835 176.152 289.721 176.152C290.585 176.152 291.353 176.333 292.025 176.696C292.697 177.059 293.219 177.576 293.593 178.248C293.977 178.92 294.169 179.704 294.169 180.6ZM291.369 179.88C291.369 179.411 291.209 179.037 290.889 178.76C290.569 178.483 290.169 178.344 289.689 178.344C289.23 178.344 288.841 178.477 288.521 178.744C288.211 179.011 288.019 179.389 287.945 179.88H291.369ZM301.052 176.184C302.097 176.184 302.929 176.525 303.548 177.208C304.177 177.88 304.492 178.808 304.492 179.992V185.208H301.772V180.36C301.772 179.763 301.617 179.299 301.308 178.968C300.999 178.637 300.583 178.472 300.06 178.472C299.537 178.472 299.121 178.637 298.812 178.968C298.503 179.299 298.348 179.763 298.348 180.36V185.208H295.612V176.28H298.348V177.464C298.625 177.069 298.999 176.76 299.468 176.536C299.937 176.301 300.465 176.184 301.052 176.184ZM307.769 175.352C307.289 175.352 306.895 175.213 306.585 174.936C306.287 174.648 306.137 174.296 306.137 173.88C306.137 173.453 306.287 173.101 306.585 172.824C306.895 172.536 307.289 172.392 307.769 172.392C308.239 172.392 308.623 172.536 308.921 172.824C309.231 173.101 309.385 173.453 309.385 173.88C309.385 174.296 309.231 174.648 308.921 174.936C308.623 175.213 308.239 175.352 307.769 175.352ZM309.129 176.28V185.208H306.393V176.28H309.129ZM316.552 176.184C317.597 176.184 318.429 176.525 319.048 177.208C319.677 177.88 319.992 178.808 319.992 179.992V185.208H317.272V180.36C317.272 179.763 317.117 179.299 316.808 178.968C316.499 178.637 316.083 178.472 315.56 178.472C315.037 178.472 314.621 178.637 314.312 178.968C314.003 179.299 313.848 179.763 313.848 180.36V185.208H311.112V176.28H313.848V177.464C314.125 177.069 314.499 176.76 314.968 176.536C315.437 176.301 315.965 176.184 316.552 176.184ZM325.285 176.152C325.915 176.152 326.464 176.28 326.933 176.536C327.413 176.792 327.781 177.128 328.037 177.544V176.28H330.773V185.192C330.773 186.013 330.608 186.755 330.277 187.416C329.957 188.088 329.461 188.621 328.789 189.016C328.128 189.411 327.301 189.608 326.309 189.608C324.987 189.608 323.915 189.293 323.093 188.664C322.272 188.045 321.803 187.203 321.685 186.136H324.389C324.475 186.477 324.677 186.744 324.997 186.936C325.317 187.139 325.712 187.24 326.181 187.24C326.747 187.24 327.195 187.075 327.525 186.744C327.867 186.424 328.037 185.907 328.037 185.192V183.928C327.771 184.344 327.403 184.685 326.933 184.952C326.464 185.208 325.915 185.336 325.285 185.336C324.549 185.336 323.883 185.149 323.285 184.776C322.688 184.392 322.213 183.853 321.861 183.16C321.52 182.456 321.349 181.645 321.349 180.728C321.349 179.811 321.52 179.005 321.861 178.312C322.213 177.619 322.688 177.085 323.285 176.712C323.883 176.339 324.549 176.152 325.285 176.152ZM328.037 180.744C328.037 180.061 327.845 179.523 327.461 179.128C327.088 178.733 326.629 178.536 326.085 178.536C325.541 178.536 325.077 178.733 324.693 179.128C324.32 179.512 324.133 180.045 324.133 180.728C324.133 181.411 324.32 181.955 324.693 182.36C325.077 182.755 325.541 182.952 326.085 182.952C326.629 182.952 327.088 182.755 327.461 182.36C327.845 181.965 328.037 181.427 328.037 180.744ZM338.209 185.208L335.489 181.464V185.208H332.753V173.368H335.489V179.912L338.193 176.28H341.569L337.857 180.76L341.601 185.208H338.209ZM342.099 180.728C342.099 179.811 342.27 179.005 342.611 178.312C342.963 177.619 343.438 177.085 344.035 176.712C344.633 176.339 345.299 176.152 346.035 176.152C346.665 176.152 347.214 176.28 347.683 176.536C348.163 176.792 348.531 177.128 348.787 177.544V176.28H351.523V185.208H348.787V183.944C348.521 184.36 348.147 184.696 347.667 184.952C347.198 185.208 346.649 185.336 346.019 185.336C345.294 185.336 344.633 185.149 344.035 184.776C343.438 184.392 342.963 183.853 342.611 183.16C342.27 182.456 342.099 181.645 342.099 180.728ZM348.787 180.744C348.787 180.061 348.595 179.523 348.211 179.128C347.838 178.733 347.379 178.536 346.835 178.536C346.291 178.536 345.827 178.733 345.443 179.128C345.07 179.512 344.883 180.045 344.883 180.728C344.883 181.411 345.07 181.955 345.443 182.36C345.827 182.755 346.291 182.952 346.835 182.952C347.379 182.952 347.838 182.755 348.211 182.36C348.595 181.965 348.787 181.427 348.787 180.744ZM358.479 182.888V185.208H357.087C356.095 185.208 355.321 184.968 354.767 184.488C354.212 183.997 353.935 183.203 353.935 182.104V178.552H352.847V176.28H353.935V174.104H356.671V176.28H358.463V178.552H356.671V182.136C356.671 182.403 356.735 182.595 356.863 182.712C356.991 182.829 357.204 182.888 357.503 182.888H358.479ZM363.217 176.824C363.26 175.683 363.633 174.803 364.337 174.184C365.041 173.565 365.996 173.256 367.201 173.256C368.001 173.256 368.684 173.395 369.249 173.672C369.825 173.949 370.257 174.328 370.545 174.808C370.844 175.288 370.993 175.827 370.993 176.424C370.993 177.128 370.817 177.704 370.465 178.152C370.113 178.589 369.703 178.888 369.233 179.048V179.112C369.841 179.315 370.321 179.651 370.673 180.12C371.025 180.589 371.201 181.192 371.201 181.928C371.201 182.589 371.047 183.176 370.737 183.688C370.439 184.189 369.996 184.584 369.409 184.872C368.833 185.16 368.145 185.304 367.345 185.304C366.065 185.304 365.041 184.989 364.273 184.36C363.516 183.731 363.116 182.781 363.073 181.512H365.729C365.74 181.981 365.873 182.355 366.129 182.632C366.385 182.899 366.759 183.032 367.249 183.032C367.665 183.032 367.985 182.915 368.209 182.68C368.444 182.435 368.561 182.115 368.561 181.72C368.561 181.208 368.396 180.84 368.065 180.616C367.745 180.381 367.228 180.264 366.513 180.264H366.001V178.04H366.513C367.057 178.04 367.495 177.949 367.825 177.768C368.167 177.576 368.337 177.24 368.337 176.76C368.337 176.376 368.231 176.077 368.017 175.864C367.804 175.651 367.511 175.544 367.137 175.544C366.732 175.544 366.428 175.667 366.225 175.912C366.033 176.157 365.921 176.461 365.889 176.824H363.217ZM372.521 176.072V173.528H376.953V185.208H374.105V176.072H372.521ZM378.6 176.472C378.6 175.608 378.846 174.941 379.336 174.472C379.838 174.003 380.483 173.768 381.272 173.768C382.062 173.768 382.702 174.003 383.192 174.472C383.683 174.941 383.928 175.608 383.928 176.472C383.928 177.336 383.683 178.003 383.192 178.472C382.702 178.941 382.062 179.176 381.272 179.176C380.483 179.176 379.838 178.941 379.336 178.472C378.846 178.003 378.6 177.336 378.6 176.472ZM389.464 173.944L383.304 185.208H380.664L386.824 173.944H389.464ZM381.256 175.368C380.744 175.368 380.488 175.736 380.488 176.472C380.488 177.197 380.744 177.56 381.256 177.56C381.502 177.56 381.694 177.469 381.832 177.288C381.971 177.107 382.04 176.835 382.04 176.472C382.04 175.736 381.779 175.368 381.256 175.368ZM386.216 182.68C386.216 181.816 386.462 181.149 386.952 180.68C387.443 180.211 388.083 179.976 388.872 179.976C389.662 179.976 390.302 180.211 390.792 180.68C391.283 181.149 391.528 181.816 391.528 182.68C391.528 183.544 391.283 184.211 390.792 184.68C390.302 185.149 389.662 185.384 388.872 185.384C388.083 185.384 387.443 185.149 386.952 184.68C386.462 184.211 386.216 183.544 386.216 182.68ZM388.856 181.576C388.611 181.576 388.419 181.667 388.28 181.848C388.152 182.029 388.088 182.307 388.088 182.68C388.088 183.405 388.344 183.768 388.856 183.768C389.102 183.768 389.294 183.677 389.432 183.496C389.571 183.315 389.64 183.043 389.64 182.68C389.64 182.317 389.571 182.045 389.432 181.864C389.294 181.672 389.102 181.576 388.856 181.576Z" fill="white"/>
<rect x="31.7214" y="215.465" width="25.1978" height="63.8343" fill="#38AA90"/>
<rect x="77.0776" y="172.629" width="25.1978" height="106.67" fill="#24DEBC"/>
<rect x="122.432" y="147.432" width="25.1978" height="131.868" fill="#38AA90"/>
<rect x="167.788" y="122.234" width="25.1978" height="157.066" fill="#24DEBC"/>
<rect x="31.7214" y="279.3" width="161.266" height="13.4388" fill="#38AA90"/>
<path d="M76.1669 112.274L102.345 138.452L139.694 101.103L154.7 116.109V76.8428H115.433L130.44 91.8491L102.345 119.944L76.1669 93.7666L25.7291 144.204L34.9829 153.458L76.1669 112.274Z" fill="#24DEBC"/>
<defs>
<linearGradient id="paint0_linear_0_1" x1="1.58194" y1="231.065" x2="5.44189" y2="234.672" gradientUnits="userSpaceOnUse">
<stop stop-color="#C5EDE4"/>
<stop offset="1" stop-color="#F4D6FF" stop-opacity="0.79"/>
</linearGradient>
<linearGradient id="paint1_linear_0_1" x1="14.0036" y1="231.065" x2="17.8636" y2="234.672" gradientUnits="userSpaceOnUse">
<stop stop-color="#C5EDE4"/>
<stop offset="1" stop-color="#F4D6FF" stop-opacity="0.79"/>
</linearGradient>
<linearGradient id="paint2_linear_0_1" x1="26.4231" y1="231.065" x2="30.283" y2="234.672" gradientUnits="userSpaceOnUse">
<stop stop-color="#C5EDE4"/>
<stop offset="1" stop-color="#F4D6FF" stop-opacity="0.79"/>
</linearGradient>
<linearGradient id="paint3_linear_0_1" x1="38.847" y1="231.065" x2="42.707" y2="234.672" gradientUnits="userSpaceOnUse">
<stop stop-color="#C5EDE4"/>
<stop offset="1" stop-color="#F4D6FF" stop-opacity="0.79"/>
</linearGradient>
<linearGradient id="paint4_linear_0_1" x1="51.2688" y1="231.065" x2="55.1287" y2="234.672" gradientUnits="userSpaceOnUse">
<stop stop-color="#C5EDE4"/>
<stop offset="1" stop-color="#F4D6FF" stop-opacity="0.79"/>
</linearGradient>
<linearGradient id="paint5_linear_0_1" x1="63.6881" y1="231.065" x2="67.5481" y2="234.672" gradientUnits="userSpaceOnUse">
<stop stop-color="#C5EDE4"/>
<stop offset="1" stop-color="#F4D6FF" stop-opacity="0.79"/>
</linearGradient>
<linearGradient id="paint6_linear_0_1" x1="76.1099" y1="231.065" x2="79.9698" y2="234.672" gradientUnits="userSpaceOnUse">
<stop stop-color="#C5EDE4"/>
<stop offset="1" stop-color="#F4D6FF" stop-opacity="0.79"/>
</linearGradient>
<linearGradient id="paint7_linear_0_1" x1="88.5338" y1="231.065" x2="92.3938" y2="234.672" gradientUnits="userSpaceOnUse">
<stop stop-color="#C5EDE4"/>
<stop offset="1" stop-color="#F4D6FF" stop-opacity="0.79"/>
</linearGradient>
<linearGradient id="paint8_linear_0_1" x1="1.58194" y1="243.487" x2="5.44189" y2="247.094" gradientUnits="userSpaceOnUse">
<stop stop-color="#C5EDE4"/>
<stop offset="1" stop-color="#F4D6FF" stop-opacity="0.79"/>
</linearGradient>
<linearGradient id="paint9_linear_0_1" x1="14.0036" y1="243.487" x2="17.8636" y2="247.094" gradientUnits="userSpaceOnUse">
<stop stop-color="#C5EDE4"/>
<stop offset="1" stop-color="#F4D6FF" stop-opacity="0.79"/>
</linearGradient>
<linearGradient id="paint10_linear_0_1" x1="26.4231" y1="243.487" x2="30.283" y2="247.094" gradientUnits="userSpaceOnUse">
<stop stop-color="#C5EDE4"/>
<stop offset="1" stop-color="#F4D6FF" stop-opacity="0.79"/>
</linearGradient>
<linearGradient id="paint11_linear_0_1" x1="38.847" y1="243.487" x2="42.707" y2="247.094" gradientUnits="userSpaceOnUse">
<stop stop-color="#C5EDE4"/>
<stop offset="1" stop-color="#F4D6FF" stop-opacity="0.79"/>
</linearGradient>
<linearGradient id="paint12_linear_0_1" x1="51.2688" y1="243.487" x2="55.1287" y2="247.094" gradientUnits="userSpaceOnUse">
<stop stop-color="#C5EDE4"/>
<stop offset="1" stop-color="#F4D6FF" stop-opacity="0.79"/>
</linearGradient>
<linearGradient id="paint13_linear_0_1" x1="63.6881" y1="243.487" x2="67.5481" y2="247.094" gradientUnits="userSpaceOnUse">
<stop stop-color="#C5EDE4"/>
<stop offset="1" stop-color="#F4D6FF" stop-opacity="0.79"/>
</linearGradient>
<linearGradient id="paint14_linear_0_1" x1="76.1099" y1="243.487" x2="79.9698" y2="247.094" gradientUnits="userSpaceOnUse">
<stop stop-color="#C5EDE4"/>
<stop offset="1" stop-color="#F4D6FF" stop-opacity="0.79"/>
</linearGradient>
<linearGradient id="paint15_linear_0_1" x1="88.5338" y1="243.487" x2="92.3938" y2="247.094" gradientUnits="userSpaceOnUse">
<stop stop-color="#C5EDE4"/>
<stop offset="1" stop-color="#F4D6FF" stop-opacity="0.79"/>
</linearGradient>
<linearGradient id="paint16_linear_0_1" x1="1.58194" y1="255.908" x2="5.44189" y2="259.515" gradientUnits="userSpaceOnUse">
<stop stop-color="#C5EDE4"/>
<stop offset="1" stop-color="#F4D6FF" stop-opacity="0.79"/>
</linearGradient>
<linearGradient id="paint17_linear_0_1" x1="14.0036" y1="255.908" x2="17.8636" y2="259.515" gradientUnits="userSpaceOnUse">
<stop stop-color="#C5EDE4"/>
<stop offset="1" stop-color="#F4D6FF" stop-opacity="0.79"/>
</linearGradient>
<linearGradient id="paint18_linear_0_1" x1="26.4231" y1="255.908" x2="30.283" y2="259.515" gradientUnits="userSpaceOnUse">
<stop stop-color="#C5EDE4"/>
<stop offset="1" stop-color="#F4D6FF" stop-opacity="0.79"/>
</linearGradient>
<linearGradient id="paint19_linear_0_1" x1="38.847" y1="255.908" x2="42.707" y2="259.515" gradientUnits="userSpaceOnUse">
<stop stop-color="#C5EDE4"/>
<stop offset="1" stop-color="#F4D6FF" stop-opacity="0.79"/>
</linearGradient>
<linearGradient id="paint20_linear_0_1" x1="51.2688" y1="255.908" x2="55.1287" y2="259.515" gradientUnits="userSpaceOnUse">
<stop stop-color="#C5EDE4"/>
<stop offset="1" stop-color="#F4D6FF" stop-opacity="0.79"/>
</linearGradient>
<linearGradient id="paint21_linear_0_1" x1="63.6881" y1="255.908" x2="67.5481" y2="259.515" gradientUnits="userSpaceOnUse">
<stop stop-color="#C5EDE4"/>
<stop offset="1" stop-color="#F4D6FF" stop-opacity="0.79"/>
</linearGradient>
<linearGradient id="paint22_linear_0_1" x1="76.1099" y1="255.908" x2="79.9698" y2="259.515" gradientUnits="userSpaceOnUse">
<stop stop-color="#C5EDE4"/>
<stop offset="1" stop-color="#F4D6FF" stop-opacity="0.79"/>
</linearGradient>
<linearGradient id="paint23_linear_0_1" x1="88.5338" y1="255.908" x2="92.3938" y2="259.515" gradientUnits="userSpaceOnUse">
<stop stop-color="#C5EDE4"/>
<stop offset="1" stop-color="#F4D6FF" stop-opacity="0.79"/>
</linearGradient>
<linearGradient id="paint24_linear_0_1" x1="1.58194" y1="268.33" x2="5.44189" y2="271.936" gradientUnits="userSpaceOnUse">
<stop stop-color="#C5EDE4"/>
<stop offset="1" stop-color="#F4D6FF" stop-opacity="0.79"/>
</linearGradient>
<linearGradient id="paint25_linear_0_1" x1="14.0036" y1="268.33" x2="17.8636" y2="271.936" gradientUnits="userSpaceOnUse">
<stop stop-color="#C5EDE4"/>
<stop offset="1" stop-color="#F4D6FF" stop-opacity="0.79"/>
</linearGradient>
<linearGradient id="paint26_linear_0_1" x1="26.4231" y1="268.33" x2="30.283" y2="271.936" gradientUnits="userSpaceOnUse">
<stop stop-color="#C5EDE4"/>
<stop offset="1" stop-color="#F4D6FF" stop-opacity="0.79"/>
</linearGradient>
<linearGradient id="paint27_linear_0_1" x1="38.847" y1="268.33" x2="42.707" y2="271.936" gradientUnits="userSpaceOnUse">
<stop stop-color="#C5EDE4"/>
<stop offset="1" stop-color="#F4D6FF" stop-opacity="0.79"/>
</linearGradient>
<linearGradient id="paint28_linear_0_1" x1="51.2688" y1="268.33" x2="55.1287" y2="271.936" gradientUnits="userSpaceOnUse">
<stop stop-color="#C5EDE4"/>
<stop offset="1" stop-color="#F4D6FF" stop-opacity="0.79"/>
</linearGradient>
<linearGradient id="paint29_linear_0_1" x1="63.6881" y1="268.33" x2="67.5481" y2="271.936" gradientUnits="userSpaceOnUse">
<stop stop-color="#C5EDE4"/>
<stop offset="1" stop-color="#F4D6FF" stop-opacity="0.79"/>
</linearGradient>
<linearGradient id="paint30_linear_0_1" x1="76.1099" y1="268.33" x2="79.9698" y2="271.936" gradientUnits="userSpaceOnUse">
<stop stop-color="#C5EDE4"/>
<stop offset="1" stop-color="#F4D6FF" stop-opacity="0.79"/>
</linearGradient>
<linearGradient id="paint31_linear_0_1" x1="88.5338" y1="268.33" x2="92.3938" y2="271.936" gradientUnits="userSpaceOnUse">
<stop stop-color="#C5EDE4"/>
<stop offset="1" stop-color="#F4D6FF" stop-opacity="0.79"/>
</linearGradient>
<linearGradient id="paint32_linear_0_1" x1="1.58194" y1="280.751" x2="5.44189" y2="284.358" gradientUnits="userSpaceOnUse">
<stop stop-color="#C5EDE4"/>
<stop offset="1" stop-color="#F4D6FF" stop-opacity="0.79"/>
</linearGradient>
<linearGradient id="paint33_linear_0_1" x1="14.0036" y1="280.751" x2="17.8636" y2="284.358" gradientUnits="userSpaceOnUse">
<stop stop-color="#C5EDE4"/>
<stop offset="1" stop-color="#F4D6FF" stop-opacity="0.79"/>
</linearGradient>
<linearGradient id="paint34_linear_0_1" x1="26.4231" y1="280.751" x2="30.283" y2="284.358" gradientUnits="userSpaceOnUse">
<stop stop-color="#C5EDE4"/>
<stop offset="1" stop-color="#F4D6FF" stop-opacity="0.79"/>
</linearGradient>
<linearGradient id="paint35_linear_0_1" x1="38.847" y1="280.751" x2="42.707" y2="284.358" gradientUnits="userSpaceOnUse">
<stop stop-color="#C5EDE4"/>
<stop offset="1" stop-color="#F4D6FF" stop-opacity="0.79"/>
</linearGradient>
<linearGradient id="paint36_linear_0_1" x1="51.2688" y1="280.751" x2="55.1287" y2="284.358" gradientUnits="userSpaceOnUse">
<stop stop-color="#C5EDE4"/>
<stop offset="1" stop-color="#F4D6FF" stop-opacity="0.79"/>
</linearGradient>
<linearGradient id="paint37_linear_0_1" x1="63.6881" y1="280.751" x2="67.5481" y2="284.358" gradientUnits="userSpaceOnUse">
<stop stop-color="#C5EDE4"/>
<stop offset="1" stop-color="#F4D6FF" stop-opacity="0.79"/>
</linearGradient>
<linearGradient id="paint38_linear_0_1" x1="76.1099" y1="280.751" x2="79.9698" y2="284.358" gradientUnits="userSpaceOnUse">
<stop stop-color="#C5EDE4"/>
<stop offset="1" stop-color="#F4D6FF" stop-opacity="0.79"/>
</linearGradient>
<linearGradient id="paint39_linear_0_1" x1="88.5338" y1="280.751" x2="92.3938" y2="284.358" gradientUnits="userSpaceOnUse">
<stop stop-color="#C5EDE4"/>
<stop offset="1" stop-color="#F4D6FF" stop-opacity="0.79"/>
</linearGradient>
<linearGradient id="paint40_linear_0_1" x1="1.58194" y1="293.172" x2="5.44189" y2="296.779" gradientUnits="userSpaceOnUse">
<stop stop-color="#C5EDE4"/>
<stop offset="1" stop-color="#F4D6FF" stop-opacity="0.79"/>
</linearGradient>
<linearGradient id="paint41_linear_0_1" x1="14.0036" y1="293.172" x2="17.8636" y2="296.779" gradientUnits="userSpaceOnUse">
<stop stop-color="#C5EDE4"/>
<stop offset="1" stop-color="#F4D6FF" stop-opacity="0.79"/>
</linearGradient>
<linearGradient id="paint42_linear_0_1" x1="26.4231" y1="293.172" x2="30.283" y2="296.779" gradientUnits="userSpaceOnUse">
<stop stop-color="#C5EDE4"/>
<stop offset="1" stop-color="#F4D6FF" stop-opacity="0.79"/>
</linearGradient>
<linearGradient id="paint43_linear_0_1" x1="38.847" y1="293.172" x2="42.707" y2="296.779" gradientUnits="userSpaceOnUse">
<stop stop-color="#C5EDE4"/>
<stop offset="1" stop-color="#F4D6FF" stop-opacity="0.79"/>
</linearGradient>
<linearGradient id="paint44_linear_0_1" x1="51.2688" y1="293.172" x2="55.1287" y2="296.779" gradientUnits="userSpaceOnUse">
<stop stop-color="#C5EDE4"/>
<stop offset="1" stop-color="#F4D6FF" stop-opacity="0.79"/>
</linearGradient>
<linearGradient id="paint45_linear_0_1" x1="63.6881" y1="293.172" x2="67.5481" y2="296.779" gradientUnits="userSpaceOnUse">
<stop stop-color="#C5EDE4"/>
<stop offset="1" stop-color="#F4D6FF" stop-opacity="0.79"/>
</linearGradient>
<linearGradient id="paint46_linear_0_1" x1="76.1099" y1="293.172" x2="79.9698" y2="296.779" gradientUnits="userSpaceOnUse">
<stop stop-color="#C5EDE4"/>
<stop offset="1" stop-color="#F4D6FF" stop-opacity="0.79"/>
</linearGradient>
<linearGradient id="paint47_linear_0_1" x1="88.5338" y1="293.172" x2="92.3938" y2="296.779" gradientUnits="userSpaceOnUse">
<stop stop-color="#C5EDE4"/>
<stop offset="1" stop-color="#F4D6FF" stop-opacity="0.79"/>
</linearGradient>
<linearGradient id="paint48_linear_0_1" x1="1.58194" y1="305.594" x2="5.44189" y2="309.201" gradientUnits="userSpaceOnUse">
<stop stop-color="#C5EDE4"/>
<stop offset="1" stop-color="#F4D6FF" stop-opacity="0.79"/>
</linearGradient>
<linearGradient id="paint49_linear_0_1" x1="14.0036" y1="305.594" x2="17.8636" y2="309.201" gradientUnits="userSpaceOnUse">
<stop stop-color="#C5EDE4"/>
<stop offset="1" stop-color="#F4D6FF" stop-opacity="0.79"/>
</linearGradient>
<linearGradient id="paint50_linear_0_1" x1="26.4231" y1="305.594" x2="30.283" y2="309.201" gradientUnits="userSpaceOnUse">
<stop stop-color="#C5EDE4"/>
<stop offset="1" stop-color="#F4D6FF" stop-opacity="0.79"/>
</linearGradient>
<linearGradient id="paint51_linear_0_1" x1="38.847" y1="305.594" x2="42.707" y2="309.201" gradientUnits="userSpaceOnUse">
<stop stop-color="#C5EDE4"/>
<stop offset="1" stop-color="#F4D6FF" stop-opacity="0.79"/>
</linearGradient>
<linearGradient id="paint52_linear_0_1" x1="51.2688" y1="305.594" x2="55.1287" y2="309.201" gradientUnits="userSpaceOnUse">
<stop stop-color="#C5EDE4"/>
<stop offset="1" stop-color="#F4D6FF" stop-opacity="0.79"/>
</linearGradient>
<linearGradient id="paint53_linear_0_1" x1="63.6881" y1="305.594" x2="67.5481" y2="309.201" gradientUnits="userSpaceOnUse">
<stop stop-color="#C5EDE4"/>
<stop offset="1" stop-color="#F4D6FF" stop-opacity="0.79"/>
</linearGradient>
<linearGradient id="paint54_linear_0_1" x1="76.1099" y1="305.594" x2="79.9698" y2="309.201" gradientUnits="userSpaceOnUse">
<stop stop-color="#C5EDE4"/>
<stop offset="1" stop-color="#F4D6FF" stop-opacity="0.79"/>
</linearGradient>
<linearGradient id="paint55_linear_0_1" x1="88.5338" y1="305.594" x2="92.3938" y2="309.201" gradientUnits="userSpaceOnUse">
<stop stop-color="#C5EDE4"/>
<stop offset="1" stop-color="#F4D6FF" stop-opacity="0.79"/>
</linearGradient>
<linearGradient id="paint56_linear_0_1" x1="1.58194" y1="318.016" x2="5.44189" y2="321.622" gradientUnits="userSpaceOnUse">
<stop stop-color="#C5EDE4"/>
<stop offset="1" stop-color="#F4D6FF" stop-opacity="0.79"/>
</linearGradient>
<linearGradient id="paint57_linear_0_1" x1="14.0036" y1="318.016" x2="17.8636" y2="321.622" gradientUnits="userSpaceOnUse">
<stop stop-color="#C5EDE4"/>
<stop offset="1" stop-color="#F4D6FF" stop-opacity="0.79"/>
</linearGradient>
<linearGradient id="paint58_linear_0_1" x1="26.4231" y1="318.016" x2="30.283" y2="321.622" gradientUnits="userSpaceOnUse">
<stop stop-color="#C5EDE4"/>
<stop offset="1" stop-color="#F4D6FF" stop-opacity="0.79"/>
</linearGradient>
<linearGradient id="paint59_linear_0_1" x1="38.847" y1="318.016" x2="42.707" y2="321.622" gradientUnits="userSpaceOnUse">
<stop stop-color="#C5EDE4"/>
<stop offset="1" stop-color="#F4D6FF" stop-opacity="0.79"/>
</linearGradient>
<linearGradient id="paint60_linear_0_1" x1="51.2688" y1="318.016" x2="55.1287" y2="321.622" gradientUnits="userSpaceOnUse">
<stop stop-color="#C5EDE4"/>
<stop offset="1" stop-color="#F4D6FF" stop-opacity="0.79"/>
</linearGradient>
<linearGradient id="paint61_linear_0_1" x1="63.6881" y1="318.016" x2="67.5481" y2="321.622" gradientUnits="userSpaceOnUse">
<stop stop-color="#C5EDE4"/>
<stop offset="1" stop-color="#F4D6FF" stop-opacity="0.79"/>
</linearGradient>
<linearGradient id="paint62_linear_0_1" x1="76.1099" y1="318.016" x2="79.9698" y2="321.622" gradientUnits="userSpaceOnUse">
<stop stop-color="#C5EDE4"/>
<stop offset="1" stop-color="#F4D6FF" stop-opacity="0.79"/>
</linearGradient>
<linearGradient id="paint63_linear_0_1" x1="88.5338" y1="318.016" x2="92.3938" y2="321.622" gradientUnits="userSpaceOnUse">
<stop stop-color="#C5EDE4"/>
<stop offset="1" stop-color="#F4D6FF" stop-opacity="0.79"/>
</linearGradient>
</defs>
</svg>
